%FSDAX24Y24*%
%MOMM*%
%SFA1B1*%

%IPPOS*%
%ADD15C,0.250000*%
%ADD16C,0.599999*%
%ADD17C,0.250000*%
%ADD18C,0.200000*%
%LNpwmdriver-1*%
%LPD*%
G54D15*
X273099Y1263599D02*
X469900D01*
Y1104900D02*
Y1263599D01*
X273099Y1104900D02*
X469900D01*
X273099D02*
Y1263599D01*
G54D16*
X340799Y1204799D02*
D01*
X340792Y1205009*
X340770Y1205217*
X340734Y1205423*
X340683Y1205626*
X340618Y1205825*
X340540Y1206020*
X340448Y1206208*
X340343Y1206389*
X340226Y1206563*
X340098Y1206728*
X339957Y1206883*
X339807Y1207029*
X339646Y1207163*
X339477Y1207286*
X339299Y1207397*
X339114Y1207496*
X338923Y1207581*
X338727Y1207653*
X338525Y1207710*
X338320Y1207754*
X338113Y1207783*
X337904Y1207797*
X337695*
X337486Y1207783*
X337278Y1207754*
X337074Y1207710*
X336872Y1207653*
X336675Y1207581*
X336484Y1207496*
X336299Y1207397*
X336122Y1207286*
X335952Y1207163*
X335792Y1207029*
X335641Y1206883*
X335501Y1206728*
X335372Y1206563*
X335255Y1206389*
X335150Y1206208*
X335059Y1206020*
X334980Y1205825*
X334916Y1205626*
X334865Y1205423*
X334829Y1205217*
X334807Y1205009*
X334799Y1204799*
X334807Y1204590*
X334829Y1204382*
X334865Y1204176*
X334916Y1203972*
X334980Y1203773*
X335059Y1203579*
X335150Y1203391*
X335255Y1203210*
X335372Y1203036*
X335501Y1202871*
X335641Y1202715*
X335792Y1202570*
X335952Y1202435*
X336122Y1202312*
X336299Y1202201*
X336484Y1202103*
X336675Y1202018*
X336872Y1201946*
X337074Y1201888*
X337278Y1201845*
X337486Y1201816*
X337695Y1201801*
X337904*
X338113Y1201816*
X338320Y1201845*
X338525Y1201888*
X338727Y1201946*
X338923Y1202018*
X339114Y1202103*
X339299Y1202201*
X339477Y1202312*
X339646Y1202435*
X339807Y1202570*
X339957Y1202715*
X340098Y1202871*
X340226Y1203036*
X340343Y1203210*
X340448Y1203391*
X340540Y1203579*
X340618Y1203773*
X340683Y1203972*
X340734Y1204176*
X340770Y1204382*
X340792Y1204590*
X340799Y1204799*
G54D17*
X317500Y1214399D02*
D01*
X317496Y1214483*
X317488Y1214566*
X317473Y1214649*
X317453Y1214730*
X317427Y1214810*
X317396Y1214887*
X317359Y1214963*
X317317Y1215035*
X317270Y1215105*
X317219Y1215171*
X317163Y1215233*
X317102Y1215291*
X317038Y1215345*
X316970Y1215394*
X316899Y1215439*
X316825Y1215478*
X316749Y1215512*
X316670Y1215541*
X316590Y1215564*
X316508Y1215581*
X316425Y1215593*
X316341Y1215599*
X316257*
X316174Y1215593*
X316091Y1215581*
X316009Y1215564*
X315929Y1215541*
X315850Y1215512*
X315773Y1215478*
X315699Y1215439*
X315628Y1215394*
X315560Y1215345*
X315496Y1215291*
X315436Y1215233*
X315380Y1215171*
X315329Y1215105*
X315282Y1215035*
X315240Y1214963*
X315203Y1214887*
X315172Y1214810*
X315146Y1214730*
X315126Y1214649*
X315111Y1214566*
X315102Y1214483*
X315099Y1214399*
X315102Y1214316*
X315111Y1214232*
X315126Y1214150*
X315146Y1214069*
X315172Y1213989*
X315203Y1213911*
X315240Y1213836*
X315282Y1213763*
X315329Y1213694*
X315380Y1213628*
X315436Y1213566*
X315496Y1213508*
X315560Y1213454*
X315628Y1213404*
X315699Y1213360*
X315773Y1213321*
X315850Y1213287*
X315929Y1213258*
X316009Y1213235*
X316091Y1213218*
X316174Y1213206*
X316257Y1213200*
X316341*
X316425Y1213206*
X316508Y1213218*
X316590Y1213235*
X316670Y1213258*
X316749Y1213287*
X316825Y1213321*
X316899Y1213360*
X316970Y1213404*
X317038Y1213454*
X317102Y1213508*
X317163Y1213566*
X317219Y1213628*
X317270Y1213694*
X317317Y1213763*
X317359Y1213836*
X317396Y1213911*
X317427Y1213989*
X317453Y1214069*
X317473Y1214150*
X317488Y1214232*
X317496Y1214316*
X317500Y1214399*
G54D18*
X347999Y1214799D02*
D01*
X348015Y1214360*
X348061Y1213923*
X348137Y1213490*
X348243Y1213063*
X348379Y1212645*
X348544Y1212237*
X348737Y1211842*
X348957Y1211461*
X349203Y1211096*
X349473Y1210750*
X349767Y1210423*
X350084Y1210117*
X350421Y1209835*
X350777Y1209576*
X351149Y1209344*
X351538Y1209137*
X351939Y1208958*
X352353Y1208808*
X352775Y1208686*
X353205Y1208595*
X353641Y1208534*
X354080Y1208503*
X354519*
X354958Y1208534*
X355393Y1208595*
X355824Y1208686*
X356246Y1208808*
X356659Y1208958*
X357061Y1209137*
X357449Y1209344*
X357822Y1209576*
X358178Y1209835*
X358515Y1210117*
X358831Y1210423*
X359126Y1210750*
X359396Y1211096*
X359642Y1211461*
X359862Y1211842*
X360055Y1212237*
X360220Y1212645*
X360355Y1213063*
X360462Y1213490*
X360538Y1213923*
X360584Y1214360*
X360699Y1214799*
X408899Y1192499D02*
Y1217899D01*
X459699*
Y1192499D02*
Y1217899D01*
X408899Y1192499D02*
X459699D01*
X331499Y1221699D02*
Y1247099D01*
X382299*
Y1221699D02*
Y1247099D01*
X331499Y1221699D02*
X382299D01*
X389899Y1230599D02*
Y1255999D01*
X440699*
Y1230599D02*
Y1255999D01*
X389899Y1230599D02*
X440699D01*
X327799Y1111799D02*
X380799D01*
X360699Y1214799D02*
X380799D01*
X327799D02*
X347999D01*
X380799Y1111799D02*
Y1214799D01*
X327799Y1111799D02*
Y1214799D01*
X302299Y1137899D02*
Y1214099D01*
X276899D02*
X302299D01*
X276899Y1137899D02*
Y1214099D01*
Y1137899D02*
X302299D01*
X411499Y1111199D02*
X436899D01*
X411499D02*
Y1187499D01*
X436899*
Y1111199D02*
Y1187499D01*
M02*