%FSAX42Y42*%
%MOMM*%
G71*
G01*
G75*
G04 Layer_Physical_Order=2*
G04 Layer_Color=16711680*
%ADD10C,0.40*%
%ADD11R,1.50X1.50*%
%ADD12C,1.50*%
%ADD13R,1.50X1.50*%
%ADD14C,1.52*%
%ADD15C,0.25*%
D11*
X004470Y012052D02*
D03*
X004280Y012433D02*
D03*
X003162Y012014D02*
D03*
D12*
X004216Y012052D02*
D03*
X003442Y012344D02*
D03*
X004026Y012433D02*
D03*
X003924Y011252D02*
D03*
Y011506D02*
D03*
Y011760D02*
D03*
Y012014D02*
D03*
X003162Y011252D02*
D03*
Y011506D02*
D03*
Y011760D02*
D03*
X002896D02*
D03*
Y012014D02*
D03*
X004242Y011747D02*
D03*
Y011493D02*
D03*
D13*
X003696Y012344D02*
D03*
X002896Y011506D02*
D03*
X004242Y011239D02*
D03*
D14*
X004559Y012510D02*
D03*
X004572Y011176D02*
D03*
X002858D02*
D03*
Y012510D02*
D03*
D15*
X003924Y012014D02*
Y012167D01*
X003747Y012344D02*
X003924Y012167D01*
X003696Y012344D02*
X003747D01*
X003442Y012243D02*
Y012344D01*
Y012243D02*
X003785Y011900D01*
X004064D01*
X003696Y012344D02*
Y012433D01*
X003835Y012573D01*
X004140D01*
X004280Y012433D01*
X004026Y012243D02*
Y012433D01*
Y012243D02*
X004216Y012052D01*
X004064Y011900D02*
X004216Y012052D01*
X003429Y012332D02*
X003442Y012344D01*
X003429Y011468D02*
Y012332D01*
X003213Y011252D02*
X003429Y011468D01*
X003162Y011252D02*
X003213D01*
X002896Y012014D02*
X003162D01*
X002896Y011760D02*
X003162D01*
X002896Y011506D02*
X003162D01*
X004280Y012243D02*
Y012433D01*
Y012243D02*
X004470Y012052D01*
X003924Y011760D02*
X004229D01*
X004242Y011747D01*
X003924Y011506D02*
X004229D01*
X004242Y011493D01*
X003924Y011252D02*
X004229D01*
X004242Y011239D01*
M02*
