%FSAX42Y42*%
%MOMM*%
G71*
G01*
G75*
G04 Layer_Color=65535*
%ADD10C,0.40*%
%ADD11R,1.50X1.50*%
%ADD12C,1.50*%
%ADD13R,1.50X1.50*%
%ADD14C,1.52*%
%ADD15C,0.25*%
%ADD16C,0.60*%
%ADD17C,0.25*%
%ADD18C,0.20*%
D15*
X002731Y012636D02*
X004699D01*
Y011049D02*
Y012636D01*
X002731Y011049D02*
X004699D01*
X002731D02*
Y012636D01*
D16*
X003408Y012048D02*
G03*
X003408Y012048I-000030J000000D01*
G01*
D17*
X003175Y012144D02*
G03*
X003175Y012144I-000012J000000D01*
G01*
D18*
X003480Y012148D02*
G03*
X003607Y012148I000063J000000D01*
G01*
X004089Y011925D02*
Y012179D01*
X004597D01*
Y011925D02*
Y012179D01*
X004089Y011925D02*
X004597D01*
X003315Y012217D02*
Y012471D01*
X003823D01*
Y012217D02*
Y012471D01*
X003315Y012217D02*
X003823D01*
X003899Y012306D02*
Y012560D01*
X004407D01*
Y012306D02*
Y012560D01*
X003899Y012306D02*
X004407D01*
X003278Y011118D02*
X003808D01*
X003607Y012148D02*
X003808D01*
X003278D02*
X003480D01*
X003808Y011118D02*
Y012148D01*
X003278Y011118D02*
Y012148D01*
X003023Y011379D02*
Y012141D01*
X002769D02*
X003023D01*
X002769Y011379D02*
Y012141D01*
Y011379D02*
X003023D01*
X004115Y011112D02*
X004369D01*
X004115D02*
Y011875D01*
X004369D01*
Y011112D02*
Y011875D01*
M02*
